<svg width="1395" height="1489" viewBox="0 0 1395 1489" fill="none" xmlns="http://www.w3.org/2000/svg">
<circle cx="1307.53" cy="745.743" r="87.0033" fill="#8D4AEA"/>
<circle cx="114.347" cy="459.875" r="114.347" fill="#8D4AEA"/>
<circle cx="666.199" cy="114.347" r="114.347" fill="#8D4AEA"/>
<circle cx="989.351" cy="1073.87" r="114.347" fill="#8D4AEA"/>
<circle cx="666.199" cy="745.743" r="114.347" fill="#8D4AEA"/>
<circle cx="666.199" cy="1374.65" r="114.347" fill="#8D4AEA"/>
<circle cx="114.348" cy="820.317" r="74.5743" fill="#8D4AEA"/>
<rect x="348.363" y="396.837" width="402.701" height="63.2545" transform="rotate(-45.1313 348.363 396.837)" fill="#8E46EB"/>
<rect x="391.961" y="377.843" width="402.701" height="63.2545" transform="rotate(44.0187 391.961 377.843)" fill="#8E46EB"/>
<rect x="395.262" y="442.7" width="327.158" height="63.2545" transform="rotate(170.408 395.262 442.7)" fill="#8E46EB"/>
<rect x="1311.83" y="782.994" width="371.765" height="63.2545" transform="rotate(134.799 1311.83 782.994)" fill="#8E46EB"/>
<rect x="634.969" y="820.142" width="371.765" height="63.2545" transform="rotate(134.799 634.969 820.142)" fill="#8E46EB"/>
<rect x="605.004" y="1360.53" width="709.956" height="63.2545" transform="rotate(-135.485 605.004 1360.53)" fill="#8E46EB"/>
<rect x="825.289" y="498.95" width="248.581" height="248.581" rx="22" transform="rotate(-45.8232 825.289 498.95)" fill="#8E46EB"/>
</svg>
